<svg width="180" height="62" viewBox="0 0 180 62" fill="none" xmlns="http://www.w3.org/2000/svg">
<path d="M50.938 11.306V13H44.036V3.06H50.812V4.754H45.968V7.148H50.154V8.716H45.968V11.306H50.938ZM55.7938 13.14C55.2058 13.14 54.6738 13.042 54.1978 12.846C53.7218 12.6407 53.3158 12.3653 52.9798 12.02C52.6438 11.6653 52.3825 11.264 52.1958 10.816C52.0185 10.3587 51.9298 9.878 51.9298 9.374C51.9298 8.674 52.0838 8.03467 52.3918 7.456C52.7091 6.87733 53.1571 6.41533 53.7358 6.07C54.3238 5.71533 55.0145 5.538 55.8078 5.538C56.6105 5.538 57.2965 5.71533 57.8658 6.07C58.4351 6.41533 58.8691 6.87733 59.1678 7.456C59.4758 8.02533 59.6298 8.64133 59.6298 9.304C59.6298 9.416 59.6251 9.53267 59.6158 9.654C59.6065 9.766 59.5971 9.85933 59.5878 9.934H53.9178C53.9551 10.3073 54.0625 10.634 54.2398 10.914C54.4265 11.194 54.6598 11.4087 54.9398 11.558C55.2291 11.698 55.5371 11.768 55.8638 11.768C56.2371 11.768 56.5871 11.6793 56.9138 11.502C57.2498 11.3153 57.4785 11.0727 57.5998 10.774L59.2098 11.222C59.0325 11.5953 58.7758 11.9267 58.4398 12.216C58.1131 12.5053 57.7258 12.734 57.2778 12.902C56.8298 13.0607 56.3351 13.14 55.7938 13.14ZM53.8758 8.744H57.7118C57.6745 8.37067 57.5671 8.04867 57.3898 7.778C57.2218 7.498 56.9978 7.28333 56.7178 7.134C56.4378 6.97533 56.1251 6.896 55.7798 6.896C55.4438 6.896 55.1358 6.97533 54.8558 7.134C54.5851 7.28333 54.3611 7.498 54.1838 7.778C54.0158 8.04867 53.9131 8.37067 53.8758 8.744ZM67.8707 13H65.9947V8.884C65.9947 8.296 65.892 7.86667 65.6867 7.596C65.4813 7.32533 65.1967 7.19 64.8327 7.19C64.5807 7.19 64.324 7.25533 64.0627 7.386C63.8107 7.51667 63.582 7.69867 63.3767 7.932C63.1713 8.156 63.022 8.41733 62.9287 8.716V13H61.0527V5.664H62.7467V7.022C62.9333 6.70467 63.1713 6.43867 63.4607 6.224C63.75 6 64.0813 5.832 64.4547 5.72C64.8373 5.59867 65.2387 5.538 65.6587 5.538C66.116 5.538 66.4893 5.622 66.7787 5.79C67.0773 5.94867 67.3013 6.168 67.4507 6.448C67.6093 6.71867 67.7167 7.02667 67.7727 7.372C67.838 7.71733 67.8707 8.06733 67.8707 8.422V13ZM69.9365 13V3.06H76.6145V4.754H71.8685V7.316H75.8165V8.884H71.8685V13H69.9365ZM78.0596 2.78H79.9356V10.648C79.9356 10.984 79.9916 11.2127 80.1036 11.334C80.2156 11.446 80.3696 11.502 80.5656 11.502C80.7149 11.502 80.8689 11.4833 81.0276 11.446C81.1863 11.4087 81.3263 11.362 81.4476 11.306L81.6996 12.734C81.4476 12.8553 81.1536 12.9487 80.8176 13.014C80.4816 13.0793 80.1783 13.112 79.9076 13.112C79.3196 13.112 78.8623 12.958 78.5356 12.65C78.2183 12.3327 78.0596 11.8847 78.0596 11.306V2.78ZM82.727 10.256V5.664H84.603V9.85C84.603 10.41 84.7056 10.8347 84.911 11.124C85.1163 11.404 85.4196 11.544 85.821 11.544C86.0636 11.544 86.3016 11.4973 86.535 11.404C86.7776 11.3013 86.997 11.152 87.193 10.956C87.3983 10.76 87.571 10.5127 87.711 10.214V5.664H89.587V10.9C89.587 11.096 89.6196 11.236 89.685 11.32C89.7596 11.404 89.8763 11.4553 90.035 11.474V13C89.8483 13.028 89.6896 13.0467 89.559 13.056C89.4376 13.0747 89.3256 13.084 89.223 13.084C88.887 13.084 88.6116 13.0093 88.397 12.86C88.1916 12.7013 88.0703 12.4867 88.033 12.216L87.991 11.628C87.6643 12.1227 87.2443 12.5007 86.731 12.762C86.2176 13.014 85.653 13.14 85.037 13.14C84.281 13.14 83.707 12.8973 83.315 12.412C82.923 11.9173 82.727 11.1987 82.727 10.256ZM100.804 5.664H102.582L99.5159 13H97.9479L96.7159 9.85L95.5119 13H93.9299L90.8779 5.664H92.6419L94.8259 11.208L95.6799 8.814L94.4059 5.678H95.9599L96.7159 7.918L97.4859 5.678H99.0399L97.7659 8.814L98.6339 11.208L100.804 5.664ZM106.884 13.14C106.296 13.14 105.764 13.042 105.288 12.846C104.812 12.6407 104.406 12.3653 104.07 12.02C103.734 11.6653 103.473 11.264 103.286 10.816C103.109 10.3587 103.02 9.878 103.02 9.374C103.02 8.674 103.174 8.03467 103.482 7.456C103.799 6.87733 104.247 6.41533 104.826 6.07C105.414 5.71533 106.105 5.538 106.898 5.538C107.701 5.538 108.387 5.71533 108.956 6.07C109.525 6.41533 109.959 6.87733 110.258 7.456C110.566 8.02533 110.72 8.64133 110.72 9.304C110.72 9.416 110.715 9.53267 110.706 9.654C110.697 9.766 110.687 9.85933 110.678 9.934H105.008C105.045 10.3073 105.153 10.634 105.33 10.914C105.517 11.194 105.75 11.4087 106.03 11.558C106.319 11.698 106.627 11.768 106.954 11.768C107.327 11.768 107.677 11.6793 108.004 11.502C108.34 11.3153 108.569 11.0727 108.69 10.774L110.3 11.222C110.123 11.5953 109.866 11.9267 109.53 12.216C109.203 12.5053 108.816 12.734 108.368 12.902C107.92 13.0607 107.425 13.14 106.884 13.14ZM104.966 8.744H108.802C108.765 8.37067 108.657 8.04867 108.48 7.778C108.312 7.498 108.088 7.28333 107.808 7.134C107.528 6.97533 107.215 6.896 106.87 6.896C106.534 6.896 106.226 6.97533 105.946 7.134C105.675 7.28333 105.451 7.498 105.274 7.778C105.106 8.04867 105.003 8.37067 104.966 8.744ZM118.961 13H117.085V8.884C117.085 8.296 116.982 7.86667 116.777 7.596C116.571 7.32533 116.287 7.19 115.923 7.19C115.671 7.19 115.414 7.25533 115.153 7.386C114.901 7.51667 114.672 7.69867 114.467 7.932C114.261 8.156 114.112 8.41733 114.019 8.716V13H112.143V5.664H113.837V7.022C114.023 6.70467 114.261 6.43867 114.551 6.224C114.84 6 115.171 5.832 115.545 5.72C115.927 5.59867 116.329 5.538 116.749 5.538C117.206 5.538 117.579 5.622 117.869 5.79C118.167 5.94867 118.391 6.168 118.541 6.448C118.699 6.71867 118.807 7.02667 118.863 7.372C118.928 7.71733 118.961 8.06733 118.961 8.422V13ZM124.288 13.14C123.691 13.14 123.154 13.042 122.678 12.846C122.202 12.6407 121.796 12.3607 121.46 12.006C121.124 11.642 120.863 11.2313 120.676 10.774C120.499 10.3167 120.41 9.836 120.41 9.332C120.41 8.64133 120.564 8.01133 120.872 7.442C121.189 6.86333 121.637 6.40133 122.216 6.056C122.795 5.71067 123.481 5.538 124.274 5.538C125.067 5.538 125.749 5.71067 126.318 6.056C126.887 6.40133 127.312 6.854 127.592 7.414L125.758 7.974C125.599 7.70333 125.389 7.498 125.128 7.358C124.867 7.20867 124.577 7.134 124.26 7.134C123.905 7.134 123.579 7.22733 123.28 7.414C122.991 7.59133 122.762 7.848 122.594 8.184C122.426 8.51067 122.342 8.89333 122.342 9.332C122.342 9.76133 122.426 10.144 122.594 10.48C122.771 10.8067 123.005 11.068 123.294 11.264C123.583 11.4507 123.905 11.544 124.26 11.544C124.484 11.544 124.694 11.5067 124.89 11.432C125.095 11.3573 125.277 11.2547 125.436 11.124C125.595 10.9933 125.711 10.844 125.786 10.676L127.62 11.236C127.452 11.6 127.205 11.9267 126.878 12.216C126.561 12.5053 126.183 12.734 125.744 12.902C125.315 13.0607 124.829 13.14 124.288 13.14ZM132.388 13.14C131.8 13.14 131.268 13.042 130.792 12.846C130.316 12.6407 129.91 12.3653 129.574 12.02C129.238 11.6653 128.977 11.264 128.79 10.816C128.613 10.3587 128.524 9.878 128.524 9.374C128.524 8.674 128.678 8.03467 128.986 7.456C129.303 6.87733 129.751 6.41533 130.33 6.07C130.918 5.71533 131.609 5.538 132.402 5.538C133.205 5.538 133.891 5.71533 134.46 6.07C135.029 6.41533 135.463 6.87733 135.762 7.456C136.07 8.02533 136.224 8.64133 136.224 9.304C136.224 9.416 136.219 9.53267 136.21 9.654C136.201 9.766 136.191 9.85933 136.182 9.934H130.512C130.549 10.3073 130.657 10.634 130.834 10.914C131.021 11.194 131.254 11.4087 131.534 11.558C131.823 11.698 132.131 11.768 132.458 11.768C132.831 11.768 133.181 11.6793 133.508 11.502C133.844 11.3153 134.073 11.0727 134.194 10.774L135.804 11.222C135.627 11.5953 135.37 11.9267 135.034 12.216C134.707 12.5053 134.32 12.734 133.872 12.902C133.424 13.0607 132.929 13.14 132.388 13.14ZM130.47 8.744H134.306C134.269 8.37067 134.161 8.04867 133.984 7.778C133.816 7.498 133.592 7.28333 133.312 7.134C133.032 6.97533 132.719 6.896 132.374 6.896C132.038 6.896 131.73 6.97533 131.45 7.134C131.179 7.28333 130.955 7.498 130.778 7.778C130.61 8.04867 130.507 8.37067 130.47 8.744Z" fill="#1A1A27"/>
<path d="M0 59V22.42H3.72V59H0ZM9.3 59V22.42H11.16V59H9.3ZM16.74 59V22.42H18.6V59H16.74ZM19.8448 59V22.42H21.7048V59H19.8448ZM23.5648 59V22.42H29.1448V59H23.5648ZM34.7248 59V22.42H38.4448V59H34.7248ZM39.6897 59V22.42H41.5497V59H39.6897ZM47.1297 59V22.42H50.8497V59H47.1297ZM56.4297 59V22.42H58.2897V59H56.4297ZM59.5345 59V22.42H61.3945V59H59.5345ZM66.9745 59V22.42H70.6945V59H66.9745ZM72.5545 59V22.42H78.1345V59H72.5545ZM79.3794 59V22.42H83.0994V59H79.3794ZM84.9594 59V22.42H90.5394V59H84.9594ZM92.3994 59V22.42H97.9794V59H92.3994ZM99.2242 59V22.42H101.084V59H99.2242ZM106.664 59V22.42H110.384V59H106.664ZM112.244 59V22.42H114.104V59H112.244ZM119.069 59V22.42H120.929V59H119.069ZM122.789 59V22.42H128.369V59H122.789ZM133.949 59V22.42H137.669V59H133.949ZM138.914 59V22.42H140.774V59H138.914ZM146.354 59V22.42H148.214V59H146.354ZM153.794 59V22.42H157.514V59H153.794ZM158.759 59V22.42H160.619V59H158.759ZM166.199 59V22.42H169.919V59H166.199ZM171.779 59V22.42H173.639V59H171.779Z" fill="#1A1A27"/>
</svg>
